<svg aria-label="Invise" xmlns="http://www.w3.org/2000/svg" viewBox="0 0 413.6 252.1">
	<path d="M175.5 95.2c0 1.1-.1 2.2-.3 3.3.2-1 .3-2.2.3-3.3zM351 70c-1.2 4.4-23.6 29.3-26 29.3-2.5 0-2.7-7.3-2.8-11.7-.1-2 1.4-3.4 6.5-9.8 3.1-3.8 7-9 7-9-18.5 2.9-27.5 11.8-27.5 21.8 0 11.8 10 16.5 15.6 26.3 3.5 6.1 4.2 12.7 3.2 18.5-1.4 7.2-7.2 12.5-12.1 15.9-22.3 15.2-45.8 6.8-50.3-3.2-.8-1.7-1.3-3.4-1.5-4.9-7.7 8.7-15 15.3-20.2 17.6-10.1 4.5-22 4.2-25.6-17.1-2-11.8 15.3-33.7 37-69.6 7.3-12.1 6.3-16.2 10-14.8 3.1 1.2 9 6.5 11.3 11.1 2.3 4.7-1.2 9.7-7.2 18.2-25 35.7-26.9 49-25.2 50 5.5 3.1 28.8-18.3 48.4-56.7l.3-.6c18.4-34 58.5-28.9 59.2-24.9 1 3.5.9 10.2-.1 13.6zm-55.6 35.6c-.7-1.1-1.7-2.6-2.7-4.4-2.5 4.5-5.4 9.3-8.4 14 1.8 3.6 3.2 9.1 2.6 9.5-1.4 1-9.4 5.2-7.1 12 2.7 8 24.7 4.3 28.4-7.2 3.1-9.5-10.1-19.9-12.8-23.9zm-22.8-69.1c-3 6-3.1 9.8-1.1 11.9 6 6.2 8.6 7.3 10.5 7.2 3.6-.1 18.1-19.7 18-27.8s-9.9-14-13.6-13.4c-3.7.6-10.8 16-13.8 22.1zm-29.8 20.1C218.6 58 189 123 188.1 125c.2-.8 3.7-12 3.7-29.9 0-26.3-6-28.9-15.8-28.9-1.7 0 1 9.3-.4 29 0 1.1-.1 2.2-.3 3.3v.1c-3.6 23.1-41.3 57.4-44.7 57.4-7.3 0 29-56.6 31.2-70.5 1.1-6.8-11.5-19.5-16.3-19.2-7.1.4-32.5 27.6-32.5 27.6s2.3-18.5-12.4-17.4c-1.1.1-1.5 10.2-5 19.6-15.7 42.9-30 59.7-32.6 71.6-2.8 12.4 8.8 16.8 13 15.8 2.6-.7 14.5-38.9 45.6-77.9 6.2-7.8 16.8-15.2 17.5-15.2 0 0-32.4 55.2-31.5 69.3.4 6.5 9.8 15.5 15.5 15.2 6.3-.3 32-21.2 45.7-40.3-2.2 8.2-4 13.9-4 16.9 0 9.5 14.2 18.2 17.4 16 11.8-8.2 25.7-46.5 49.5-81.2C240.2 74 247.1 66.4 255 60c3.3-2.9-6.3-3.7-12.2-3.4zM1.5 82.7c-3.1 7.6-.6 16.6 1.6 20.7 3.1 5.7 7 9.6 9.1 9.6 1.4 0 .8-1.6.8-8.1C12.9 76.4 76.9 25 95.4 25c0 0-91.4 148-91 164.2.1 5.3 10.4 21.6 14.8 21.6 1.4 0 2.2-6 5.8-16.5C40.2 151 117.7 31 117.4 21.3c-.1-5.8-8-21.6-10.4-21.3C55.5 7.1 8.1 66.4 1.5 82.7zM46.3 252c2.4 1.5 41.2-27.8 164.4-47.9 66.8-10.9 131.3-9.5 149.4-8.6 5 .3 4.9-1.5 5.7-5.1 1.3-5.9-.9-6.8-5-7.3-15.4-2.1-52.2-8.9-134.3-.6-94.1 9.5-156.9 31.2-170.1 44.1-8.3 8.3-13.9 23-10.1 25.4zM412 122.8c-5.4 14-25.5 36.4-41.3 36.4-15.1 0-23.9-6.5-30.5-16.7-4.1-6.4-8.4-24.2-2.1-39.9 12.4-31 33.6-42.5 44.3-46.1 5.5-1.9 13.4-2.2 18.6 2.5 7.2 6.5 4.5 15 2.4 21.7-3.4 11.4-23.2 39-37 40-7.3.5-10.8-6.2-12.4-11.1-3.9 8.9-4.5 16.6-2.9 21.5 2 5.9 7 9.9 14.9 9.9 11.5 0 26.4-8.6 41.6-25.1 1.2-1.3 2.3-2.6 3.4-3.9 2.5-1.9 4 2.1 1 10.8zm-50-17c3.4 4.9 8.5.8 12.1-2.6 4.8-4.5 16.1-19.6 9.9-24.5-5.1-4.1-17.4 3.9-22.9 16.1-.8 1.7-1.4 7.7.9 11z"></path>
</svg>
